<svg xmlns="http://www.w3.org/2000/svg" width="95.51" height="95.51" viewBox="0 0 95.51 95.51">
  <title>Asset 2</title>
  <g>
    <path d="M56.89,47.75a9.14,9.14,0,1,1-9.14-9.14A9.14,9.14,0,0,1,56.89,47.75Z"/>
    <path d="M69.13,31.58a9.08,9.08,0,0,0-5.2-5.2,15.27,15.27,0,0,0-5.1-.95c-2.89-.13-3.75-.16-11.08-.16s-8.19,0-11.08.16a15.25,15.25,0,0,0-5.09.95,9.08,9.08,0,0,0-5.2,5.2,15,15,0,0,0-.95,5.09c-.13,2.89-.16,3.76-.16,11.08s0,8.19.16,11.09a15,15,0,0,0,.95,5.09,9.08,9.08,0,0,0,5.2,5.2,15.06,15.06,0,0,0,5.09.94c2.89.14,3.76.16,11.08.16s8.19,0,11.08-.16a15.08,15.08,0,0,0,5.1-.94,9.06,9.06,0,0,0,5.2-5.2,15.06,15.06,0,0,0,.94-5.09c.14-2.9.16-3.76.16-11.09s0-8.19-.16-11.08A15.06,15.06,0,0,0,69.13,31.58ZM47.75,61.83A14.08,14.08,0,1,1,61.83,47.75,14.08,14.08,0,0,1,47.75,61.83ZM62.39,36.41a3.29,3.29,0,1,1,3.29-3.29A3.29,3.29,0,0,1,62.39,36.41Z"/>
    <path d="M47.75,0A47.76,47.76,0,1,0,95.51,47.75,47.75,47.75,0,0,0,47.75,0ZM75,59.06a20,20,0,0,1-1.28,6.66,14,14,0,0,1-8,8A20,20,0,0,1,59.06,75c-2.92.13-3.86.16-11.31.16s-8.38,0-11.3-.16a20,20,0,0,1-6.66-1.28,13.23,13.23,0,0,1-4.85-3.16,13.47,13.47,0,0,1-3.17-4.85,20.31,20.31,0,0,1-1.27-6.66c-.14-2.93-.17-3.86-.17-11.31s0-8.38.17-11.3a20.05,20.05,0,0,1,1.27-6.66,14.13,14.13,0,0,1,8-8,20.05,20.05,0,0,1,6.66-1.27c2.92-.14,3.86-.17,11.3-.17s8.38,0,11.31.17a20.05,20.05,0,0,1,6.66,1.27,13.47,13.47,0,0,1,4.85,3.17,13.23,13.23,0,0,1,3.16,4.85A20,20,0,0,1,75,36.45c.13,2.92.16,3.86.16,11.3S75.14,56.13,75,59.06Z"/>
  </g>
</svg>
