<svg xmlns="http://www.w3.org/2000/svg" width="52.92" height="52.92" viewBox="0 0 52.92 52.92">
  <path d="M16,0A16,16,0,0,0,0,16V36.9a16,16,0,0,0,16,16H36.9a16.06,16.06,0,0,0,16-16V16a16,16,0,0,0-16-16Zm0,4.18H36.9A11.8,11.8,0,0,1,48.74,16V36.9A11.81,11.81,0,0,1,36.9,48.74H16A11.8,11.8,0,0,1,4.18,36.9V16A11.8,11.8,0,0,1,16,4.18ZM40.38,9.75a2.79,2.79,0,1,0,2.79,2.78A2.78,2.78,0,0,0,40.38,9.75ZM26.46,12.53A13.93,13.93,0,1,0,40.38,26.46,14,14,0,0,0,26.46,12.53Zm0,4.18a9.75,9.75,0,1,1-9.75,9.75A9.72,9.72,0,0,1,26.46,16.71Z"/>
</svg>
