<svg xmlns="http://www.w3.org/2000/svg" width="213.59" height="17.53" viewBox="0 0 213.59 17.53">
  <defs>
    <style>
      .a {
        fill: #f2f2f2;
      }
    </style>
  </defs>
  <title>Asset 1</title>
  <g>
    <path class="a" d="M4.59.23,9,12.61,13.34.23H18V17.3H14.43V12.63l.35-8L10.17,17.3H7.76L3.16,4.59l.36,8V17.3H0V.23Z"/>
    <path class="a" d="M30.87,13.78H24.7L23.53,17.3H19.79L26.14.23H29.4L35.79,17.3H32.05Zm-5.22-2.85h4.27L27.77,4.55Z"/>
    <path class="a" d="M43.7,11.05H40.9V17.3H37.38V.23h6.34a7.18,7.18,0,0,1,4.67,1.35A4.67,4.67,0,0,1,50,5.39a5.19,5.19,0,0,1-.76,2.91A5.13,5.13,0,0,1,47,10.16l3.69,7v.17H46.9ZM40.9,8.2h2.83a2.92,2.92,0,0,0,2.06-.67,2.43,2.43,0,0,0,.72-1.86,2.61,2.61,0,0,0-.68-1.9,2.87,2.87,0,0,0-2.11-.69H40.9Z"/>
    <path class="a" d="M65,3.08H59.73V17.3H56.21V3.08H51.06V.23H65Z"/>
    <path class="a" d="M70.7,17.3H67.18V.23H70.7Z"/>
    <path class="a" d="M87.83,17.3H84.32L77.47,6.07V17.3H74V.23h3.51l6.86,11.25V.23h3.5Z"/>
    <path class="a" d="M116.14,12.38,118.44.23H122L118.16,17.3h-3.54L111.84,5.88,109.07,17.3h-3.54L101.74.23h3.51l2.3,12.12L110.37.23h3Z"/>
    <path class="a" d="M127.58,17.3h-3.51V.23h3.51Z"/>
    <path class="a" d="M134.36,14.47h7.46V17.3h-11V.23h3.52Z"/>
    <path class="a" d="M147.35,14.47h7.47V17.3h-11V.23h3.51Z"/>
    <path class="a" d="M160.57,17.3h-3.52V.23h3.52Z"/>
    <path class="a" d="M173.67,13.78h-6.16l-1.17,3.52H162.6L169,.23h3.26l6.38,17.07h-3.73Zm-5.21-2.85h4.26l-2.14-6.38Z"/>
    <path class="a" d="M184.78.23l4.38,12.38L193.52.23h4.62V17.3h-3.53V12.63l.35-8-4.6,12.72H188l-4.6-12.71.35,8V17.3h-3.51V.23Z"/>
    <path class="a" d="M210.06,12.82a1.84,1.84,0,0,0-.7-1.53,9.36,9.36,0,0,0-2.54-1.12A19,19,0,0,1,203.93,9Q201,7.43,201,4.77a4.15,4.15,0,0,1,.78-2.47A5.15,5.15,0,0,1,204,.61,8.37,8.37,0,0,1,207.32,0a7.64,7.64,0,0,1,3.25.66,5.13,5.13,0,0,1,2.22,1.87,4.89,4.89,0,0,1,.8,2.74h-3.52a2.3,2.3,0,0,0-.74-1.82,3,3,0,0,0-2.07-.65,3.22,3.22,0,0,0-2,.55,1.72,1.72,0,0,0-.71,1.43,1.65,1.65,0,0,0,.84,1.4,9.78,9.78,0,0,0,2.46,1.05,10.61,10.61,0,0,1,4.37,2.24,4.44,4.44,0,0,1,1.38,3.33,4.1,4.1,0,0,1-1.68,3.47,7.34,7.34,0,0,1-4.51,1.26,8.75,8.75,0,0,1-3.59-.72,5.64,5.64,0,0,1-2.46-2,5.05,5.05,0,0,1-.85-2.91H204q0,2.82,3.38,2.82a3.31,3.31,0,0,0,2-.51A1.67,1.67,0,0,0,210.06,12.82Z"/>
  </g>
</svg>
