<svg xmlns="http://www.w3.org/2000/svg" width="52.44" height="42.61" viewBox="0 0 52.44 42.61">
  <path d="M52.44,5a21.36,21.36,0,0,1-6.18,1.7A10.78,10.78,0,0,0,51,.79,21.8,21.8,0,0,1,44.16,3.4a10.76,10.76,0,0,0-18.61,7.36,10.46,10.46,0,0,0,.28,2.45A30.55,30.55,0,0,1,3.65,2,10.79,10.79,0,0,0,7,16.33,10.72,10.72,0,0,1,2.11,15v.14a10.76,10.76,0,0,0,8.63,10.55A11.06,11.06,0,0,1,7.9,26a10.33,10.33,0,0,1-2-.19,10.77,10.77,0,0,0,10.05,7.48,21.61,21.61,0,0,1-13.36,4.6A21.77,21.77,0,0,1,0,37.78a30.45,30.45,0,0,0,16.49,4.83C36.28,42.61,47.1,26.22,47.1,12c0-.46,0-.93,0-1.39A21.88,21.88,0,0,0,52.44,5Z"/>
</svg>
