<svg xmlns="http://www.w3.org/2000/svg" width="95.51" height="95.51" viewBox="0 0 95.51 95.51">
  <title>Asset 1</title>
  <path d="M47.75,0A47.76,47.76,0,1,0,95.51,47.75,47.75,47.75,0,0,0,47.75,0ZM69.56,37.23c0,.47,0,1,0,1.42,0,14.48-11,31.19-31.19,31.19h0a31,31,0,0,1-16.8-4.93,22.62,22.62,0,0,0,2.62.15,22,22,0,0,0,13.61-4.69,11,11,0,0,1-10.24-7.61,10.82,10.82,0,0,0,2.06.2,11,11,0,0,0,2.89-.39,11,11,0,0,1-8.79-10.74v-.14a10.94,10.94,0,0,0,5,1.37,11,11,0,0,1-3.39-14.64A31.09,31.09,0,0,0,47.91,39.88a11,11,0,0,1,18.68-10,21.81,21.81,0,0,0,7-2.66,11,11,0,0,1-4.82,6.06A21.7,21.7,0,0,0,75,31.56,22,22,0,0,1,69.56,37.23Z"/>
</svg>
